<svg width="24" height="24" viewBox="0 0 24 24" fill="none" xmlns="http://www.w3.org/2000/svg">
<path d="M11.9997 0.333252C15.1695 0.333252 15.565 0.344919 16.8087 0.403252C18.0512 0.461585 18.897 0.656419 19.6413 0.945752C20.4113 1.24209 21.06 1.64342 21.7087 2.29092C22.3019 2.87413 22.761 3.57961 23.0538 4.35825C23.342 5.10142 23.538 5.94842 23.5963 7.19092C23.6512 8.43459 23.6663 8.83009 23.6663 11.9999C23.6663 15.1698 23.6547 15.5653 23.5963 16.8089C23.538 18.0514 23.342 18.8973 23.0538 19.6416C22.7618 20.4207 22.3027 21.1263 21.7087 21.7089C21.1253 22.302 20.4199 22.761 19.6413 23.0541C18.8982 23.3423 18.0512 23.5383 16.8087 23.5966C15.565 23.6514 15.1695 23.6666 11.9997 23.6666C8.82984 23.6666 8.43434 23.6549 7.19067 23.5966C5.94817 23.5383 5.10234 23.3423 4.35801 23.0541C3.57906 22.7618 2.87346 22.3027 2.29067 21.7089C1.69732 21.1258 1.23826 20.4203 0.945508 19.6416C0.656175 18.8984 0.461341 18.0514 0.403008 16.8089C0.348174 15.5653 0.333008 15.1698 0.333008 11.9999C0.333008 8.83009 0.344674 8.43459 0.403008 7.19092C0.461341 5.94725 0.656175 5.10259 0.945508 4.35825C1.23745 3.57913 1.69661 2.87346 2.29067 2.29092C2.87362 1.69736 3.57917 1.23827 4.35801 0.945752C5.10234 0.656419 5.94701 0.461585 7.19067 0.403252C8.43434 0.348419 8.82984 0.333252 11.9997 0.333252ZM11.9997 6.16659C10.4526 6.16659 8.96885 6.78117 7.87489 7.87513C6.78092 8.96909 6.16634 10.4528 6.16634 11.9999C6.16634 13.547 6.78092 15.0307 7.87489 16.1247C8.96885 17.2187 10.4526 17.8333 11.9997 17.8333C13.5468 17.8333 15.0305 17.2187 16.1245 16.1247C17.2184 15.0307 17.833 13.547 17.833 11.9999C17.833 10.4528 17.2184 8.96909 16.1245 7.87513C15.0305 6.78117 13.5468 6.16659 11.9997 6.16659ZM19.583 5.87492C19.583 5.48814 19.4294 5.11721 19.1559 4.84372C18.8824 4.57023 18.5114 4.41659 18.1247 4.41659C17.7379 4.41659 17.367 4.57023 17.0935 4.84372C16.82 5.11721 16.6663 5.48814 16.6663 5.87492C16.6663 6.26169 16.82 6.63263 17.0935 6.90612C17.367 7.17961 17.7379 7.33325 18.1247 7.33325C18.5114 7.33325 18.8824 7.17961 19.1559 6.90612C19.4294 6.63263 19.583 6.26169 19.583 5.87492ZM11.9997 8.49992C12.9279 8.49992 13.8182 8.86867 14.4745 9.52505C15.1309 10.1814 15.4997 11.0717 15.4997 11.9999C15.4997 12.9282 15.1309 13.8184 14.4745 14.4748C13.8182 15.1312 12.9279 15.4999 11.9997 15.4999C11.0714 15.4999 10.1812 15.1312 9.5248 14.4748C8.86842 13.8184 8.49967 12.9282 8.49967 11.9999C8.49967 11.0717 8.86842 10.1814 9.5248 9.52505C10.1812 8.86867 11.0714 8.49992 11.9997 8.49992Z" fill="#3461FF"/>
</svg>
