<svg width="24" height="20" viewBox="0 0 24 20" fill="none" xmlns="http://www.w3.org/2000/svg">
<path d="M7.539 19.501C16.596 19.501 21.5505 11.9965 21.5505 5.50004C21.5505 5.29004 21.5505 5.07704 21.5415 4.86704C22.5061 4.16877 23.3386 3.30427 24 2.31404C23.099 2.71132 22.1441 2.97315 21.1665 3.09104C22.1963 2.4755 22.9676 1.50699 23.337 0.36554C22.3695 0.938726 21.3105 1.3411 20.2065 1.55504C19.4643 0.764575 18.4821 0.240916 17.4121 0.0651759C16.3421 -0.110564 15.2441 0.0714219 14.288 0.582946C13.3319 1.09447 12.5712 1.90698 12.1237 2.89463C11.6761 3.88228 11.5668 4.98994 11.8125 6.04604C9.85461 5.94787 7.93922 5.43924 6.19056 4.55315C4.4419 3.66707 2.89903 2.42331 1.662 0.90254C1.03401 1.98716 0.842361 3.27014 1.12597 4.49094C1.40958 5.71174 2.14718 6.77883 3.189 7.47554C2.40831 7.44902 1.64478 7.23938 0.96 6.86354V6.93104C0.961346 8.06726 1.35496 9.16817 2.07431 10.0477C2.79366 10.9272 3.79462 11.5314 4.908 11.758C4.48539 11.8745 4.04884 11.9325 3.6105 11.9305C3.30148 11.9315 2.99307 11.9028 2.6895 11.845C3.00418 12.8231 3.61691 13.6783 4.44187 14.2908C5.26683 14.9032 6.2627 15.2423 7.29 15.2605C5.54483 16.6312 3.3891 17.3746 1.17 17.371C0.778981 17.3727 0.388235 17.3501 0 17.3035C2.25227 18.7394 4.86795 19.5019 7.539 19.501Z" fill="#3461FF"/>
</svg>
